<?xml version="1.0" standalone="no"?>
<!DOCTYPE svg PUBLIC "-//W3C//DTD SVG 20010904//EN"
 "http://www.w3.org/TR/2001/REC-SVG-20010904/DTD/svg10.dtd">
<svg version="1.0" xmlns="http://www.w3.org/2000/svg"
 width="149.000000pt" height="149.000000pt" viewBox="0 0 149.000000 149.000000"
 preserveAspectRatio="xMidYMid meet">
<metadata>
Created by potrace 1.14, written by Peter Selinger 2001-2017
</metadata>
<g transform="translate(0.000000,149.000000) scale(0.100000,-0.100000)"
fill="#000000" stroke="none">
<path d="M584 1476 c-230 -53 -423 -209 -519 -419 -27 -58 -56 -160 -54 -192
1 -11 7 8 15 42 49 227 220 430 434 518 163 66 315 72 495 20 49 -15 53 -18
43 -35 -9 -14 -9 -22 1 -33 17 -21 -3 -31 -29 -15 -27 17 -55 -1 -55 -36 1
-14 -5 -28 -11 -30 -7 -3 -10 2 -7 14 3 10 0 21 -6 24 -18 11 16 55 38 49 21
-5 33 17 21 37 -4 7 -15 10 -23 7 -9 -3 -21 1 -27 9 -17 20 -47 17 -60 -5 -15
-29 -12 -49 9 -70 20 -20 18 -31 -5 -31 -7 0 -15 14 -19 30 -4 17 -15 35 -26
40 -10 6 -19 19 -19 29 0 14 -9 18 -45 19 -25 0 -48 -5 -53 -11 -4 -7 -16 -17
-27 -24 -11 -6 -19 -17 -17 -25 3 -10 1 -11 -9 0 -7 6 -23 12 -35 12 -37 0
-55 -39 -41 -92 12 -44 69 -49 83 -6 4 14 9 17 16 10 15 -15 38 -3 38 19 0 34
34 22 46 -16 10 -31 9 -35 -7 -35 -10 0 -23 -10 -29 -22 -10 -21 -10 -22 4 -5
8 10 23 17 33 15 21 -4 30 -43 13 -63 -13 -16 -40 -9 -40 11 0 8 -5 14 -11 14
-7 0 -5 -10 5 -25 14 -22 14 -25 1 -25 -8 0 -17 -11 -21 -24 -4 -17 -14 -25
-35 -28 -17 -3 -32 -1 -35 4 -3 4 1 8 9 8 19 0 31 30 18 43 -17 17 -43 0 -36
-23 4 -13 1 -22 -9 -26 -9 -3 -16 -16 -16 -27 0 -16 -3 -18 -12 -9 -9 9 -9 17
0 34 27 55 36 99 26 116 -26 40 -81 11 -69 -37 14 -60 12 -81 -6 -81 -21 0
-34 -38 -25 -68 8 -25 34 -36 51 -22 9 8 15 8 20 0 11 -18 24 -11 31 17 l7 26
18 -25 c19 -25 59 -32 87 -14 12 7 5 34 -15 54 -17 18 -17 36 1 29 19 -8 38
16 30 37 -3 9 -1 16 6 16 8 0 10 -15 5 -54 -5 -35 -3 -56 4 -60 6 -4 11 -18
11 -31 0 -26 22 -39 39 -22 8 8 11 7 11 -6 0 -9 6 -17 14 -17 8 0 16 -7 20
-15 6 -17 36 -21 36 -5 0 6 -5 9 -11 8 -6 -2 -14 3 -16 10 -3 6 0 12 6 12 14
0 41 -41 41 -63 0 -9 8 -20 18 -24 9 -3 25 -13 34 -20 9 -8 22 -12 27 -8 7 4
11 -3 11 -17 0 -13 9 -29 21 -36 18 -11 24 -11 40 4 10 9 19 25 19 36 0 10 4
18 9 18 6 0 7 -15 4 -33 -6 -39 18 -71 47 -62 14 4 16 1 12 -20 -3 -20 0 -25
17 -25 11 0 21 6 21 13 0 14 66 17 86 4 17 -10 34 16 27 41 -3 12 -9 20 -13
17 -4 -2 -5 7 -2 20 3 16 0 25 -8 25 -9 0 -8 5 3 18 10 11 14 26 10 40 -3 13
-1 22 6 22 18 0 17 -60 -1 -71 -7 -4 -6 -9 2 -14 6 -4 9 -13 6 -21 -3 -8 -1
-14 4 -14 5 0 10 -10 12 -22 2 -13 11 -24 22 -26 15 -3 18 1 15 25 -3 18 3 35
16 50 l21 21 -1 -25 c0 -31 22 -43 31 -16 3 10 12 31 19 48 l14 29 5 -24 c3
-14 7 -34 9 -45 4 -16 5 -15 6 5 0 14 -4 43 -9 65 -6 26 -5 44 2 52 14 17 3
43 -19 43 -16 1 -16 2 -2 13 41 31 50 90 22 139 -15 24 -23 29 -48 25 -16 -2
-39 -8 -49 -12 -16 -7 -18 -5 -13 14 4 18 1 24 -14 28 -11 3 -19 14 -19 27 0
16 2 18 9 7 15 -24 44 5 30 30 -13 24 -26 24 -34 0 -5 -18 -7 -18 -30 5 -14
14 -25 31 -25 39 0 8 -9 15 -20 15 -11 0 -20 -7 -20 -15 0 -13 -3 -13 -20 -3
-11 7 -23 21 -26 30 -3 10 -12 18 -20 18 -8 0 -38 13 -67 29 -97 55 -200 82
-327 87 -77 2 -135 -1 -176 -10z m144 -48 c28 -28 -3 -83 -33 -58 -8 7 -15 20
-15 29 0 17 18 41 30 41 3 0 11 -5 18 -12z m38 -15 c-10 -10 -19 5 -10 18 6
11 8 11 12 0 2 -7 1 -15 -2 -18z m124 12 c15 -18 5 -65 -13 -65 -32 0 -48 45
-25 68 16 16 23 15 38 -3z m50 -21 c0 -8 -5 -12 -10 -9 -6 4 -8 11 -5 16 9 14
15 11 15 -7z m112 -23 c-4 -29 18 -48 40 -35 14 9 48 -26 48 -48 0 -11 -5 -28
-10 -39 -24 -43 -75 -6 -67 48 4 20 2 31 -4 28 -5 -4 -9 -22 -9 -41 0 -19 -4
-34 -10 -34 -5 0 -10 4 -10 9 0 5 -9 11 -20 14 -11 3 -20 1 -20 -4 0 -5 6 -9
14 -9 23 0 56 -50 56 -84 0 -42 -34 -96 -61 -96 -74 0 -107 118 -46 167 12 10
30 35 40 56 9 21 22 35 27 32 15 -9 12 -25 -6 -25 -8 0 -12 -5 -8 -11 4 -7 11
-6 21 4 11 11 12 19 4 34 -7 14 -7 23 1 31 9 9 9 15 -1 25 -10 10 -11 9 -6 -5
5 -13 2 -18 -9 -18 -19 0 -21 11 -5 27 20 20 46 4 41 -26z m-382 8 c0 -5 -4
-9 -10 -9 -5 0 -10 7 -10 16 0 8 5 12 10 9 6 -3 10 -10 10 -16z m-41 -25 c9
-20 8 -31 -1 -52 -7 -14 -18 -27 -23 -29 -20 -6 -47 23 -47 50 0 56 50 77 71
31z m181 7 c17 -33 11 -58 -17 -80 l-28 -21 30 11 30 10 -21 -23 c-12 -13 -24
-30 -27 -38 -3 -9 -6 -4 -7 13 -4 43 -4 45 -17 59 -16 15 -17 60 -1 76 18 18
46 14 58 -7z m270 3 c0 -8 -4 -12 -10 -9 -5 3 -10 10 -10 16 0 5 5 9 10 9 6 0
10 -7 10 -16z m47 -21 c-8 -7 -37 9 -31 19 3 5 12 4 20 -3 8 -6 13 -14 11 -16z
m-454 -3 c4 0 5 5 1 12 -4 6 -3 8 4 5 12 -8 4 -47 -9 -47 -5 0 -9 7 -9 15 0 8
-4 15 -10 15 -5 0 -10 5 -10 12 0 9 3 9 12 0 7 -7 16 -12 21 -12z m301 -6 c9
-24 8 -29 -21 -60 -14 -16 -24 -22 -21 -14 3 8 1 23 -4 33 -5 10 -6 27 -3 37
8 24 40 26 49 4z m186 1 c0 -8 -4 -15 -10 -15 -5 0 -10 7 -10 15 0 8 5 15 10
15 6 0 10 -7 10 -15z m-270 -23 c0 -13 -12 -22 -22 -16 -10 6 -1 24 13 24 5 0
9 -4 9 -8z m308 -11 c12 -11 22 -27 21 -38 0 -15 -2 -15 -11 5 -13 26 -33 29
-42 6 -8 -21 11 -45 30 -37 9 3 14 -1 14 -13 -1 -24 -23 -54 -40 -54 -40 0
-64 -66 -40 -111 12 -21 50 -25 68 -7 18 18 33 -3 17 -25 -8 -12 -15 -14 -20
-8 -10 17 -52 13 -59 -5 -12 -32 -6 -63 16 -75 18 -10 24 -8 38 8 15 19 17 19
36 4 26 -22 11 -58 -28 -63 -21 -4 -28 0 -30 16 -2 12 -10 21 -18 21 -20 0
-41 35 -34 57 3 10 -3 22 -15 30 -12 7 -21 18 -21 25 0 6 -4 15 -10 18 -6 4
-7 -5 -4 -23 7 -37 -10 -72 -36 -72 -21 0 -40 28 -40 59 0 25 28 54 46 47 24
-9 44 5 44 30 0 13 -4 24 -8 24 -4 0 -6 16 -4 35 2 19 -1 49 -7 66 -11 31 -10
31 7 16 10 -10 25 -17 32 -17 23 0 50 32 50 60 0 44 13 50 48 21z m52 3 c0 -8
-4 -12 -10 -9 -5 3 -10 10 -10 16 0 5 5 9 10 9 6 0 10 -7 10 -16z m-404 -21
c-10 -10 -19 5 -10 18 6 11 8 11 12 0 2 -7 1 -15 -2 -18z m44 -19 c0 -14 -3
-14 -15 -4 -8 7 -15 14 -15 16 0 2 7 4 15 4 8 0 15 -7 15 -16z m30 -5 c0 -5
-4 -9 -10 -9 -5 0 -10 7 -10 16 0 8 5 12 10 9 6 -3 10 -10 10 -16z m273 -5
c-4 -12 -8 -13 -14 -3 -9 15 -2 32 11 24 5 -3 6 -13 3 -21z m91 8 c10 -12 15
-32 14 -53 -3 -30 -7 -35 -30 -37 -44 -4 -65 59 -32 92 20 20 27 20 48 -2z
m52 -9 c-10 -10 -19 5 -10 18 6 11 8 11 12 0 2 -7 1 -15 -2 -18z m-458 -6 c34
-41 19 -122 -25 -133 -28 -7 -63 19 -63 48 0 10 -7 18 -17 18 -17 1 -17 1 0
11 9 5 17 16 17 24 0 36 65 60 88 32z m-294 -20 c8 -12 8 -22 0 -34 -17 -27
-33 -27 -45 1 -9 20 -9 29 1 41 15 18 29 16 44 -8z m339 -8 c-4 -15 -8 -17
-14 -8 -6 11 4 28 18 29 0 0 -1 -9 -4 -21z m407 -35 c0 -8 -4 -12 -10 -9 -5 3
-10 10 -10 16 0 5 5 9 10 9 6 0 10 -7 10 -16z m-118 -26 c-9 -9 -12 -7 -12 12
0 19 3 21 12 12 9 -9 9 -15 0 -24z m-442 -4 c0 -21 -17 -17 -23 5 -3 14 -1 18
9 14 8 -3 14 -11 14 -19z m-136 -5 c-3 -5 -10 -7 -15 -3 -5 3 -7 10 -3 15 3 5
10 7 15 3 5 -3 7 -10 3 -15z m806 6 c6 -8 14 -32 17 -53 4 -32 1 -44 -16 -61
-24 -24 -53 -27 -69 -8 -15 19 -42 88 -32 82 6 -3 10 1 10 9 0 39 65 61 90 31z
m-877 -21 c-4 -12 -8 -13 -14 -3 -9 15 -2 32 11 24 5 -3 6 -13 3 -21z m146 -3
c-15 -5 -22 6 -14 19 6 9 10 9 16 -1 5 -8 4 -15 -2 -18z m486 5 c30 -46 -12
-108 -50 -76 -21 18 -19 77 3 89 25 15 30 14 47 -13z m65 5 c-13 -25 3 -71 25
-71 8 0 15 -5 15 -11 0 -6 -7 -8 -16 -5 -9 3 -20 6 -25 6 -5 0 -9 8 -9 19 0
10 -10 25 -22 33 -20 13 -21 17 -9 32 7 9 22 16 33 16 15 0 17 -3 8 -19z m78
-2 c3 -11 1 -10 -7 1 -9 12 -11 11 -11 -7 0 -50 -30 -72 -48 -35 -16 29 3 61
34 58 16 -2 30 -9 32 -17z m-552 -24 c4 -8 9 -13 13 -11 3 2 15 -1 26 -5 19
-9 19 -9 -1 -5 -16 2 -25 -3 -33 -20 -14 -31 -39 -31 -47 1 -10 39 29 75 42
40z m124 -6 c0 -5 -4 -9 -10 -9 -5 0 -10 7 -10 16 0 8 5 12 10 9 6 -3 10 -10
10 -16z m-359 -16 c3 -47 -15 -71 -38 -51 -14 11 -18 50 -6 61 13 14 43 7 44
-10z m59 2 c0 -8 -4 -15 -10 -15 -5 0 -10 7 -10 15 0 8 5 15 10 15 6 0 10 -7
10 -15z m63 -19 c-3 -39 -16 -51 -35 -32 -23 22 -12 68 16 64 16 -2 21 -9 19
-32z m262 24 c3 -5 1 -10 -4 -10 -6 0 -11 5 -11 10 0 6 2 10 4 10 3 0 8 -4 11
-10z m135 -5 c0 -8 -4 -15 -10 -15 -5 0 -10 7 -10 15 0 8 5 15 10 15 6 0 10
-7 10 -15z m-193 -21 c-9 -9 -28 6 -21 18 4 6 10 6 17 -1 6 -6 8 -13 4 -17z
m359 -1 c-10 -10 -19 5 -10 18 6 11 8 11 12 0 2 -7 1 -15 -2 -18z m-405 -33
c10 0 19 5 19 10 0 6 6 9 13 8 12 -3 27 -46 20 -60 -6 -12 -43 4 -43 19 0 11
-7 14 -25 11 -27 -6 -28 -4 -18 32 7 24 8 25 11 3 2 -15 10 -23 23 -23z m9 25
c0 -8 -4 -15 -10 -15 -5 0 -10 7 -10 15 0 8 5 15 10 15 6 0 10 -7 10 -15z m98
-2 c17 -33 -10 -72 -35 -51 -14 11 -18 50 -6 61 12 13 32 7 41 -10z m51 -14
c-12 -23 -25 -24 -33 -3 -10 27 -7 31 19 26 21 -3 23 -7 14 -23z m-399 0 c0
-5 -4 -9 -10 -9 -5 0 -10 7 -10 16 0 8 5 12 10 9 6 -3 10 -10 10 -16z m107
-11 c-3 -7 -5 -2 -5 12 0 14 2 19 5 13 2 -7 2 -19 0 -25z m643 7 c0 -26 -14
-33 -25 -15 -9 14 1 40 15 40 5 0 10 -11 10 -25z m-48 -21 c10 -21 9 -31 -2
-52 -8 -14 -20 -27 -26 -29 -19 -6 -44 26 -44 56 0 53 51 71 72 25z m-512 -6
c0 -16 -3 -19 -11 -11 -6 6 -8 16 -5 22 11 17 16 13 16 -11z m585 -26 c0 -35
27 -36 36 -2 4 14 8 21 9 15 1 -5 4 -19 6 -30 12 -52 12 -74 1 -89 -17 -23
-47 -10 -47 18 0 28 18 46 38 39 10 -4 13 -2 8 5 -10 17 -23 15 -46 -8 -23
-23 -40 -19 -40 11 0 10 -4 19 -10 19 -5 0 -10 9 -10 20 0 13 7 20 20 20 11 0
20 5 20 12 0 6 3 8 7 4 4 -4 7 -19 8 -34z m-535 13 c0 -8 -4 -15 -10 -15 -5 0
-10 7 -10 15 0 8 5 15 10 15 6 0 10 -7 10 -15z m150 0 c0 -8 -4 -15 -10 -15
-5 0 -10 7 -10 15 0 8 5 15 10 15 6 0 10 -7 10 -15z m210 0 c0 -8 6 -15 13
-15 8 0 8 -3 1 -8 -6 -4 -13 -15 -17 -25 -5 -14 -11 -16 -27 -7 -19 10 -27 49
-13 63 12 13 43 7 43 -8z m-249 -42 c-13 -10 -17 -8 -19 9 -5 27 21 44 29 20
3 -10 -1 -22 -10 -29z m160 24 c-13 -13 -26 -3 -16 12 3 6 11 8 17 5 6 -4 6
-10 -1 -17z m289 3 c0 -5 -4 -10 -10 -10 -5 0 -10 5 -10 10 0 6 5 10 10 10 6
0 10 -4 10 -10z m-480 -15 c0 -8 -4 -15 -10 -15 -5 0 -10 7 -10 15 0 8 5 15
10 15 6 0 10 -7 10 -15z m540 6 c0 -6 -4 -13 -10 -16 -5 -3 -10 1 -10 9 0 9 5
16 10 16 6 0 10 -4 10 -9z m-456 -17 c3 -8 2 -12 -4 -9 -6 4 -7 -5 -4 -23 8
-38 -21 -66 -41 -39 -18 25 -12 50 13 63 12 6 19 14 15 17 -3 4 -2 7 4 7 6 0
14 -7 17 -16z m125 -40 c7 -19 10 -38 7 -41 -3 -4 -6 1 -6 11 0 16 -1 16 -16
1 -20 -20 -44 -4 -44 30 0 49 41 49 59 -1z m201 21 c0 -8 -4 -15 -10 -15 -5 0
-10 7 -10 15 0 8 5 15 10 15 6 0 10 -7 10 -15z m-409 -28 c-8 -8 -11 -7 -11 4
0 20 13 34 18 19 3 -7 -1 -17 -7 -23z m105 6 c-10 -10 -19 5 -10 18 6 11 8 11
12 0 2 -7 1 -15 -2 -18z m36 -2 c2 -17 1 -28 -4 -25 -4 3 -5 -8 -2 -25 5 -23
2 -32 -14 -40 -15 -8 -23 -7 -32 4 -16 20 -9 47 16 60 14 7 20 18 18 33 -2 12
0 22 5 22 5 0 11 -13 13 -29z m104 -28 c-10 -10 -19 5 -10 18 6 11 8 11 12 0
2 -7 1 -15 -2 -18z m108 3 c-3 -7 -11 -13 -19 -13 -10 0 -11 5 -4 19 11 20 31
15 23 -6z m86 4 c13 -24 -3 -60 -26 -60 -8 0 -12 -4 -9 -10 3 -5 2 -10 -2 -10
-13 0 -13 73 -1 88 15 17 26 15 38 -8z m-187 -59 c-8 -53 -18 -56 -18 -7 0 26
4 43 11 43 8 0 10 -12 7 -36z m71 23 c17 -17 19 -27 10 -61 -14 -50 -74 -33
-74 20 0 52 33 73 64 41z m-96 -22 c4 -23 -13 -52 -29 -52 -15 0 -30 40 -24
61 9 28 49 22 53 -9z m262 -2 c0 -5 -4 -10 -10 -10 -5 0 -10 5 -10 10 0 6 5
10 10 10 6 0 10 -4 10 -10z m-70 -45 c0 -8 -4 -15 -10 -15 -5 0 -10 7 -10 15
0 8 5 15 10 15 6 0 10 -7 10 -15z m-61 -24 c-15 -5 -22 6 -14 19 6 9 10 9 16
-1 5 -8 4 -15 -2 -18z m-109 -6 c0 -8 -4 -15 -10 -15 -5 0 -10 7 -10 15 0 8 5
15 10 15 6 0 10 -7 10 -15z"/>
<path d="M477 1327 c-3 -8 -2 -20 3 -27 11 -18 42 -4 38 17 -4 22 -34 29 -41
10z m33 -5 c0 -13 -12 -22 -22 -16 -10 6 -1 24 13 24 5 0 9 -4 9 -8z"/>
<path d="M387 1280 c-8 -20 -19 -30 -36 -32 -17 -2 -27 -10 -29 -23 -4 -20 -3
-20 11 -1 19 26 47 14 47 -19 0 -33 -28 -45 -46 -20 -12 17 -14 17 -14 2 0 -9
9 -22 20 -29 21 -13 27 -38 10 -38 -5 0 -10 6 -10 13 0 25 -37 50 -64 43 -20
-5 -52 -56 -42 -68 10 -11 15 -58 6 -58 -5 0 -10 9 -10 21 0 14 -5 19 -17 17
-12 -2 -18 -12 -18 -28 0 -18 5 -25 18 -24 22 2 22 -10 0 -31 -16 -16 -17 -16
-25 4 -9 26 -24 27 -37 3 -11 -22 4 -43 24 -36 18 7 26 -33 9 -47 -10 -8 -14
-8 -14 -1 0 6 -9 16 -19 22 -29 15 -55 -14 -48 -56 4 -25 2 -33 -13 -37 -14
-3 -17 -11 -13 -26 7 -28 35 -23 43 7 3 13 8 23 13 23 28 -3 37 1 37 14 0 9 6
15 13 14 28 -3 37 2 37 23 0 16 3 19 11 11 14 -14 39 -5 39 14 0 8 9 26 19 40
15 18 18 30 11 47 -6 17 -4 25 11 34 10 7 19 19 19 27 0 8 9 19 20 25 11 6 20
19 20 30 0 10 5 22 10 25 6 3 10 17 10 30 0 18 4 22 20 18 27 -7 50 14 50 46
0 55 -54 71 -73 21z m59 5 c9 -23 -5 -65 -22 -65 -8 0 -17 7 -20 15 -4 8 -10
12 -15 9 -10 -6 0 25 14 44 13 17 36 15 43 -3z m-137 -129 c20 -24 20 -54 1
-78 -15 -19 -22 -21 -37 -12 -10 6 -19 25 -21 43 -5 51 30 80 57 47z m-89 -97
c0 -11 -4 -17 -10 -14 -5 3 -10 13 -10 21 0 8 5 14 10 14 6 0 10 -9 10 -21z
m58 -18 c19 -12 11 -65 -10 -69 -24 -5 -42 32 -28 58 12 22 18 24 38 11z
m-106 -53 c-9 -9 -12 -7 -12 12 0 19 3 21 12 12 9 -9 9 -15 0 -24z m46 -48
c-10 -39 -28 -55 -28 -25 0 8 5 15 11 15 7 0 9 9 5 24 -6 24 1 39 14 31 5 -3
3 -23 -2 -45z m39 -6 c-9 -9 -28 6 -21 18 4 6 10 6 17 -1 6 -6 8 -13 4 -17z
m-92 -13 c9 -29 -5 -52 -29 -49 -37 5 -34 68 3 68 11 0 22 -8 26 -19z m-55
-86 c0 -8 -4 -15 -10 -15 -5 0 -10 7 -10 15 0 8 5 15 10 15 6 0 10 -7 10 -15z"/>
<path d="M1360 1225 c0 -18 5 -25 20 -25 15 0 20 7 20 25 0 18 -5 25 -20 25
-15 0 -20 -7 -20 -25z m30 0 c0 -8 -4 -15 -10 -15 -5 0 -10 7 -10 15 0 8 5 15
10 15 6 0 10 -7 10 -15z"/>
<path d="M447 1173 c-12 -12 -7 -41 7 -46 22 -9 41 19 26 38 -14 16 -23 19
-33 8z m26 -29 c-4 -10 -9 -12 -15 -6 -12 12 -1 35 12 27 5 -3 6 -13 3 -21z"/>
<path d="M387 1130 c-7 -27 16 -45 33 -25 15 18 6 45 -14 45 -7 0 -16 -9 -19
-20z m33 -11 c0 -5 -4 -9 -10 -9 -5 0 -10 7 -10 16 0 8 5 12 10 9 6 -3 10 -10
10 -16z"/>
<path d="M402 1048 c2 -13 10 -23 18 -23 8 0 16 10 18 23 3 17 -2 22 -18 22
-16 0 -21 -5 -18 -22z m28 3 c0 -6 -4 -13 -10 -16 -5 -3 -10 1 -10 9 0 9 5 16
10 16 6 0 10 -4 10 -9z"/>
<path d="M3 733 c7 -112 26 -201 57 -266 17 -34 17 -40 3 -68 -17 -35 -12 -83
14 -111 18 -20 68 -24 79 -7 8 13 69 -44 92 -86 9 -16 15 -40 13 -52 -3 -30
36 -33 41 -3 3 19 4 20 25 5 13 -9 23 -25 23 -36 0 -21 35 -28 42 -8 2 6 18
-3 35 -21 20 -21 33 -28 38 -20 5 8 12 6 25 -5 10 -9 24 -14 29 -10 10 6 50
-4 109 -26 13 -5 33 -7 46 -3 19 4 22 11 18 37 -6 43 -21 60 -48 54 -19 -3
-22 0 -22 25 1 31 -14 48 -44 48 -16 0 -16 2 2 20 11 11 20 25 20 30 0 19 15
10 32 -20 13 -23 24 -30 49 -30 24 0 30 -4 25 -15 -3 -8 -9 -22 -13 -32 -4
-11 -3 -14 5 -9 7 4 12 14 12 21 0 8 9 19 19 25 36 19 64 -34 45 -84 -9 -23
-51 -20 -59 4 -3 11 -11 20 -17 20 -22 0 21 -45 47 -50 42 -7 47 -34 6 -28
-18 3 -34 2 -36 -2 -2 -3 13 -7 33 -8 20 -2 45 -5 55 -8 10 -3 23 -1 30 4 7 6
41 18 77 27 238 60 431 237 517 472 24 67 31 124 8 63 -10 -27 -14 -30 -14
-13 -1 28 -30 45 -54 32 -9 -6 -17 -15 -17 -21 0 -6 8 -4 19 6 21 19 35 8 43
-34 4 -21 0 -26 -19 -28 -15 -1 -26 5 -30 16 -16 41 -63 49 -63 10 0 -17 -3
-18 -14 -9 -12 10 -17 8 -26 -8 -6 -12 -8 -21 -5 -21 3 0 -4 -9 -16 -21 -14
-14 -19 -29 -16 -46 3 -16 -2 -32 -14 -44 -12 -12 -19 -33 -19 -60 0 -32 -3
-40 -15 -35 -18 7 -45 -19 -45 -44 0 -13 -5 -17 -19 -13 -21 5 -51 -21 -51
-46 0 -24 21 -49 45 -53 14 -2 1 -13 -47 -36 -77 -37 -92 -39 -83 -13 9 29 -5
70 -27 82 -31 16 -68 -13 -68 -54 0 -25 -4 -33 -20 -34 -11 -1 -22 2 -25 8 -4
5 -15 9 -26 9 -13 0 -19 7 -19 23 0 13 -5 28 -12 35 -9 9 -6 12 14 12 26 0 38
16 38 50 0 41 -50 59 -72 26 -5 -7 -8 -5 -8 6 0 9 -2 22 -5 30 -3 7 5 17 17
23 17 7 24 20 26 48 2 21 -1 37 -7 37 -6 0 -11 11 -11 24 0 29 -10 38 -29 26
-8 -4 -12 -17 -8 -29 6 -23 -11 -29 -30 -10 -7 7 -19 9 -27 6 -19 -7 -21 -43
-4 -53 7 -5 4 -10 -11 -15 -12 -5 -28 -23 -35 -40 l-13 -32 -7 36 c-4 20 -12
38 -19 40 -7 3 0 6 15 6 46 2 61 59 23 91 -10 9 -19 9 -35 0 -18 -9 -21 -19
-18 -46 3 -26 1 -33 -10 -29 -7 3 -17 5 -20 5 -4 0 -7 24 -7 53 0 46 2 53 18
49 23 -6 47 15 47 44 0 27 -27 57 -46 50 -10 -4 -14 2 -14 19 0 30 -34 52 -55
35 -11 -9 -16 -7 -24 8 -15 29 -40 35 -68 16 -14 -8 -22 -18 -19 -21 3 -3 12
2 21 11 22 21 31 20 49 -6 29 -40 -22 -81 -54 -43 -7 8 -9 15 -4 15 11 0 -18
20 -29 20 -5 0 -6 -4 -3 -9 3 -5 -3 -20 -13 -32 -16 -19 -23 -22 -37 -14 -23
15 -33 45 -23 73 13 34 39 39 61 13 10 -13 18 -19 18 -13 0 15 -29 42 -45 42
-7 0 -20 -7 -29 -15 -9 -9 -17 -11 -21 -5 -9 15 -42 12 -48 -3 -7 -19 4 -34
28 -38 11 -3 21 -14 23 -26 7 -48 67 -58 88 -14 l12 23 11 -21 c13 -23 66 -30
74 -8 3 7 9 0 16 -15 6 -18 18 -28 31 -28 13 0 20 -7 20 -20 0 -15 -7 -20 -25
-20 -53 0 -72 -95 -23 -121 17 -9 18 -13 5 -27 -16 -20 -30 -65 -16 -56 5 3 9
11 9 18 0 21 40 56 65 56 33 0 65 -44 65 -90 0 -46 -32 -90 -66 -90 -38 0 -72
42 -65 82 0 5 -4 8 -10 8 -6 0 -8 -7 -5 -16 3 -9 9 -28 12 -42 4 -23 3 -24 -6
-10 -16 27 -57 22 -76 -7 -9 -14 -14 -29 -10 -32 4 -4 9 3 12 15 12 43 74 35
74 -9 0 -11 4 -19 9 -19 5 0 7 9 4 20 -6 24 -5 24 36 4 25 -13 31 -21 27 -37
-3 -11 0 -29 5 -40 9 -15 18 -18 46 -14 24 4 33 2 30 -6 -2 -7 -14 -11 -25 -9
-12 2 -22 -2 -22 -7 0 -20 -38 -11 -43 10 -5 18 -9 19 -27 9 -27 -14 -33 -9
-32 30 l1 31 -18 -22 c-21 -26 -50 -20 -58 11 -6 22 -19 27 -25 9 -3 -9 -10
-9 -26 0 l-22 12 20 21 c22 24 25 49 10 79 -9 15 -7 19 7 19 25 0 59 25 66 49
8 33 -22 81 -51 81 -20 0 -23 3 -14 12 19 19 14 66 -8 88 -41 41 -110 10 -110
-49 0 -32 30 -61 62 -61 15 0 16 -4 8 -25 -10 -27 -5 -51 18 -78 14 -16 13
-17 -18 -10 -29 5 -36 2 -56 -23 l-23 -28 -26 29 c-31 37 -35 70 -5 37 35 -37
90 -19 90 30 0 31 -17 48 -50 48 -22 0 -26 4 -25 28 0 20 -5 28 -21 30 -27 4
-36 -19 -22 -58 12 -37 -4 -86 -33 -95 -34 -11 -58 5 -70 46 -11 35 -10 43 8
67 16 20 29 27 52 26 17 -1 28 2 25 7 -3 5 -20 9 -39 9 -31 0 -35 3 -53 53
-37 97 -45 141 -46 244 -1 57 -5 103 -10 103 -5 0 -6 -46 -3 -107z m252 -72
c7 -12 -12 -24 -25 -16 -11 7 -4 25 10 25 5 0 11 -4 15 -9z m275 -78 c0 -31
-29 -42 -46 -18 -18 24 -17 30 2 50 21 20 44 3 44 -32z m56 -67 c-10 -41 -56
-30 -56 14 0 5 7 16 16 25 15 15 19 15 32 2 9 -10 12 -24 8 -41z m744 28 c0
-8 -4 -12 -10 -9 -5 3 -10 10 -10 16 0 5 5 9 10 9 6 0 10 -7 10 -16z m-45 -33
c-9 -16 -25 -3 -18 15 4 10 9 12 15 6 6 -6 7 -15 3 -21z m101 -1 c22 0 24 -3
19 -22 -28 -95 -159 -260 -254 -320 -22 -14 -31 -15 -51 -5 -29 14 -37 48 -17
66 25 20 49 2 45 -35 -2 -18 0 -30 4 -28 4 3 8 14 8 25 0 11 6 19 13 18 26 -3
37 2 47 24 10 20 10 20 -3 5 -20 -26 -46 -22 -53 7 -11 44 17 60 73 41 48 -16
84 35 63 89 -8 21 -7 30 6 42 11 12 14 27 11 50 -8 45 0 62 24 56 12 -3 19 0
19 8 1 10 4 8 11 -3 5 -10 21 -18 35 -18z m-1044 -7 c22 -20 24 -56 3 -73 -8
-7 -13 -16 -10 -20 2 -4 -8 -5 -23 -2 -57 10 -79 56 -45 94 20 22 51 23 75 1z
m176 -25 c24 -24 7 -98 -23 -98 -17 0 -45 38 -45 62 0 19 26 48 44 48 6 0 17
-5 24 -12z m760 0 c28 -28 -3 -83 -33 -58 -8 7 -15 20 -15 29 0 17 18 41 30
41 3 0 11 -5 18 -12z m-644 -61 c7 -26 -16 -52 -38 -44 -18 7 -21 48 -5 64 16
16 36 6 43 -20z m126 14 c0 -6 -4 -13 -10 -16 -5 -3 -10 1 -10 9 0 9 5 16 10
16 6 0 10 -4 10 -9z m-552 -23 c-2 -13 -7 -23 -13 -23 -5 0 -11 10 -13 23 -2
15 2 22 13 22 11 0 15 -7 13 -22z m492 -18 c0 -11 -7 -20 -15 -20 -8 0 -15 9
-15 20 0 11 7 20 15 20 8 0 15 -9 15 -20z m-294 -19 c21 -42 -14 -89 -56 -76
-25 8 -42 52 -30 75 20 37 68 38 86 1z m372 -5 c4 -30 -12 -48 -35 -39 -14 5
-18 54 -6 67 15 15 38 -1 41 -28z m488 9 c14 -21 15 -31 6 -51 -24 -51 -72
-38 -72 20 0 57 38 74 66 31z m-546 -10 c0 -17 -4 -23 -15 -19 -11 5 -12 10
-2 25 15 25 17 24 17 -6z m-499 -2 c24 15 53 0 57 -31 4 -28 -30 -47 -58 -32
-11 6 -20 17 -20 25 0 7 -2 19 -3 27 -2 7 -2 10 0 6 3 -4 13 -2 24 5z m485
-31 c34 -22 43 -84 18 -120 -8 -12 -11 -22 -5 -22 5 0 13 10 17 23 7 21 7 21
15 2 12 -32 11 -34 -33 -30 -63 7 -75 13 -86 45 -23 64 28 133 74 102z m-371
-72 c23 -25 13 -67 -20 -82 -48 -22 -86 43 -48 84 21 23 45 23 68 -2z m483
-39 c-5 -43 -57 -38 -58 6 0 6 7 19 16 28 22 21 46 1 42 -34z m-211 -69 c17
-21 -1 -52 -31 -52 -26 0 -39 28 -25 51 5 8 3 17 -4 22 -7 4 2 5 18 1 17 -3
35 -13 42 -22z m357 -15 c9 -46 3 -62 -24 -64 -14 -1 -31 3 -37 9 -18 15 -16
63 3 82 20 20 52 5 58 -27z m-674 8 c0 -8 -4 -15 -10 -15 -5 0 -10 7 -10 15 0
8 5 15 10 15 6 0 10 -7 10 -15z m86 -42 c-10 -10 -19 5 -10 18 6 11 8 11 12 0
2 -7 1 -15 -2 -18z m84 -18 c0 -8 -4 -15 -10 -15 -5 0 -10 7 -10 15 0 8 5 15
10 15 6 0 10 -7 10 -15z m204 9 c28 -11 14 -74 -16 -74 -17 0 -29 40 -18 60
12 22 12 22 34 14z m174 -22 c4 -23 -13 -52 -29 -52 -16 0 -27 35 -18 58 11
30 43 25 47 -6z m-318 -7 c0 -8 -4 -15 -10 -15 -5 0 -10 7 -10 15 0 8 5 15 10
15 6 0 10 -7 10 -15z m376 0 c17 -13 17 -14 2 -15 -10 0 -18 6 -19 13 0 9 -2
9 -6 -1 -2 -6 -9 -10 -14 -6 -10 6 -3 24 10 24 4 0 16 -7 27 -15z m-296 -10
c0 -8 -4 -15 -10 -15 -5 0 -10 7 -10 15 0 8 5 15 10 15 6 0 10 -7 10 -15z"/>
<path d="M1341 476 c-8 -9 -7 -18 3 -31 15 -21 36 -12 36 15 0 22 -25 33 -39
16z m21 -28 c-9 -9 -12 -7 -12 12 0 19 3 21 12 12 9 -9 9 -15 0 -24z"/>
<path d="M1190 276 c0 -9 5 -16 10 -16 6 0 10 4 10 9 0 6 -4 13 -10 16 -5 3
-10 -1 -10 -9z"/>
<path d="M1455 810 c3 -5 1 -10 -6 -10 -7 0 -10 -11 -7 -32 6 -40 1 -58 -18
-58 -8 0 -14 -5 -14 -11 0 -5 4 -8 9 -5 15 10 34 -23 29 -49 -3 -14 -1 -25 3
-25 8 0 14 39 10 63 0 4 3 7 8 7 10 0 13 82 4 113 -2 9 -9 17 -14 17 -6 0 -7
-4 -4 -10z m15 -35 c0 -8 -4 -15 -10 -15 -5 0 -10 7 -10 15 0 8 5 15 10 15 6
0 10 -7 10 -15z m0 -60 c0 -8 -4 -15 -10 -15 -5 0 -10 7 -10 15 0 8 5 15 10
15 6 0 10 -7 10 -15z"/>
<path d="M80 786 c0 -7 -9 -16 -20 -19 -23 -6 -27 -35 -6 -43 17 -7 66 38 66
60 0 9 -8 16 -20 16 -11 0 -20 -6 -20 -14z m30 -11 c0 -8 -4 -15 -10 -15 -5 0
-10 7 -10 15 0 8 5 15 10 15 6 0 10 -7 10 -15z m-40 -30 c0 -8 -4 -15 -10 -15
-5 0 -10 7 -10 15 0 8 5 15 10 15 6 0 10 -7 10 -15z"/>
<path d="M40 690 c0 -24 29 -38 40 -20 12 19 1 40 -21 40 -12 0 -19 -7 -19
-20z m30 -5 c0 -8 -4 -15 -10 -15 -5 0 -10 7 -10 15 0 8 5 15 10 15 6 0 10 -7
10 -15z"/>
<path d="M1405 669 c7 -11 35 -12 35 -1 0 4 -9 8 -20 9 -11 1 -18 -2 -15 -8z"/>
<path d="M182 608 c-15 -15 -15 -61 0 -76 19 -19 36 -14 54 13 30 46 -17 100
-54 63z m48 -18 c11 -21 -1 -60 -19 -60 -18 0 -33 31 -27 55 8 30 31 33 46 5z"/>
<path d="M86 564 c-9 -8 -16 -28 -16 -44 0 -48 57 -72 82 -36 15 22 7 25 -12
6 -17 -17 -23 -18 -40 -8 -38 24 -15 100 26 84 9 -3 18 -15 21 -26 3 -11 9
-20 14 -20 12 0 -1 33 -19 48 -21 16 -37 15 -56 -4z"/>
<path d="M390 540 c-16 -16 -18 -25 -10 -40 22 -42 79 -15 65 30 -9 28 -33 32
-55 10z m44 -9 c10 -16 -6 -42 -23 -39 -9 2 -17 13 -19 26 -3 16 2 22 17 22
11 0 22 -4 25 -9z"/>
<path d="M650 476 c0 -20 5 -26 21 -26 15 0 20 5 17 22 -5 34 -38 37 -38 4z
m30 -1 c0 -8 -4 -15 -10 -15 -5 0 -10 7 -10 15 0 8 5 15 10 15 6 0 10 -7 10
-15z"/>
<path d="M1086 423 c-4 -9 -1 -23 7 -30 12 -12 16 -12 26 0 13 17 5 47 -14 47
-7 0 -16 -8 -19 -17z m23 -22 c-15 -5 -22 6 -14 19 6 9 10 9 16 -1 5 -8 4 -15
-2 -18z"/>
<path d="M849 411 c-20 -16 -22 -23 -14 -47 8 -21 18 -30 38 -32 37 -4 57 13
57 49 0 22 -6 32 -26 39 -32 13 -28 13 -55 -9z m55 -4 c26 -19 18 -61 -12 -65
-44 -7 -67 32 -36 62 19 19 25 20 48 3z"/>
<path d="M988 423 c-21 -5 -33 -43 -23 -72 5 -16 15 -21 42 -21 26 0 34 -4 30
-14 -7 -17 18 -40 33 -31 5 3 10 15 10 26 0 17 -10 24 -32 20 -4 0 -5 13 -1
29 4 22 0 36 -12 50 -10 11 -21 19 -24 19 -3 -1 -14 -3 -23 -6z m50 -51 c-2
-23 -8 -27 -33 -27 -24 0 -31 5 -33 24 -5 32 23 54 50 40 13 -7 18 -19 16 -37z
m32 -67 c0 -8 -4 -15 -10 -15 -5 0 -10 7 -10 15 0 8 5 15 10 15 6 0 10 -7 10
-15z"/>
<path d="M1101 356 c-15 -18 -3 -48 18 -44 21 4 27 44 7 51 -8 3 -19 0 -25 -7z
m24 -25 c-9 -16 -25 -3 -18 15 4 10 9 12 15 6 6 -6 7 -15 3 -21z"/>
<path d="M800 321 c-7 -14 -6 -22 5 -31 18 -15 35 -5 35 20 0 25 -28 33 -40
11z m30 -10 c0 -6 -4 -13 -10 -16 -5 -3 -10 1 -10 9 0 9 5 16 10 16 6 0 10 -4
10 -9z"/>
<path d="M880 296 c0 -20 5 -26 21 -26 15 0 20 5 17 22 -5 34 -38 37 -38 4z
m30 -1 c0 -8 -4 -15 -10 -15 -5 0 -10 7 -10 15 0 8 5 15 10 15 6 0 10 -7 10
-15z"/>
<path d="M944 282 c-22 -14 -27 -53 -8 -73 22 -25 49 -24 75 2 32 32 11 79
-36 79 -11 0 -25 -4 -31 -8z m64 -18 c20 -36 -10 -71 -48 -59 -24 8 -32 32
-20 56 13 23 56 25 68 3z"/>
<path d="M124 245 c-7 -18 3 -35 21 -35 15 0 24 19 18 38 -6 17 -32 15 -39 -3z
m27 -18 c-13 -13 -26 -3 -16 12 3 6 11 8 17 5 6 -4 6 -10 -1 -17z"/>
<path d="M175 204 c-14 -15 -15 -19 -2 -32 18 -17 37 -8 37 18 0 27 -16 33
-35 14z m25 -19 c0 -8 -4 -15 -10 -15 -5 0 -10 7 -10 15 0 8 5 15 10 15 6 0
10 -7 10 -15z"/>
<path d="M1007 157 c-3 -8 -2 -20 3 -27 11 -18 42 -4 38 17 -4 22 -34 29 -41
10z m33 -5 c0 -13 -12 -22 -22 -16 -10 6 -1 24 13 24 5 0 9 -4 9 -8z"/>
</g>
</svg>
